<svg id="visual" viewBox="0 0 960 540" width="960" height="540" xmlns="http://www.w3.org/2000/svg" xmlns:xlink="http://www.w3.org/1999/xlink" version="1.1"><rect x="0" y="0" width="960" height="540" fill="#212121"></rect><defs><linearGradient id="grad1_0" x1="43.8%" y1="0%" x2="100%" y2="100%"><stop offset="14.444444444444446%" stop-color="#212121" stop-opacity="1"></stop><stop offset="85.55555555555554%" stop-color="#212121" stop-opacity="1"></stop></linearGradient></defs><defs><linearGradient id="grad2_0" x1="0%" y1="0%" x2="56.3%" y2="100%"><stop offset="14.444444444444446%" stop-color="#212121" stop-opacity="1"></stop><stop offset="85.55555555555554%" stop-color="#212121" stop-opacity="1"></stop></linearGradient></defs><g transform="translate(960, 0)"><path d="M0 324C-46.6 323 -93.2 322 -123.6 298.4C-154 274.9 -168.3 228.8 -198.7 198.7C-229.1 168.6 -275.8 154.4 -299.3 124C-322.9 93.5 -323.5 46.8 -324 0L0 0Z" fill="#f9fbff"></path></g><g transform="translate(0, 540)"><path d="M0 -324C42.4 -319.8 84.8 -315.6 124 -299.3C163.2 -283.1 199.3 -254.7 220.6 -220.6C241.9 -186.5 248.5 -146.8 263.3 -109.1C278.1 -71.3 301 -35.7 324 0L0 0Z" fill="#f9fbff"></path></g></svg>