<svg id="visual" viewBox="0 0 960 540" width="960" height="540" xmlns="http://www.w3.org/2000/svg" xmlns:xlink="http://www.w3.org/1999/xlink" version="1.1"><rect x="0" y="0" width="960" height="540" fill="#000b14"></rect><g transform="translate(475.54293735597304 271.7293707751134)"><path d="M127 -149.2C171.3 -114.2 218.6 -80.5 217.6 -44.6C216.5 -8.6 167.2 29.7 136.1 73.9C105 118 92.2 168 58.8 194.3C25.5 220.5 -28.3 223 -61 197.9C-93.7 172.9 -105.3 120.2 -134.1 75.1C-163 30 -209 -7.5 -208.7 -41.6C-208.4 -75.7 -161.7 -106.4 -119.2 -141.7C-76.7 -177.1 -38.4 -217 1.5 -218.8C41.4 -220.6 82.7 -184.2 127 -149.2" fill="#f9fbff"></path></g></svg>