<svg id="visual" viewBox="0 0 960 540" width="960" height="540" xmlns="http://www.w3.org/2000/svg" xmlns:xlink="http://www.w3.org/1999/xlink" version="1.1"><g transform="translate(490.830517071878 281.33776609940975)"><path d="M89.3 -118.3C106.2 -92.3 103.8 -55.1 107.2 -21.1C110.6 12.9 119.8 43.7 108.7 62.5C97.6 81.4 66.1 88.3 34 104.8C2 121.4 -30.6 147.6 -52.3 140.9C-73.9 134.2 -84.6 94.6 -98 61.4C-111.4 28.2 -127.6 1.4 -133.4 -33.6C-139.2 -68.6 -134.7 -111.9 -110.7 -136.6C-86.8 -161.4 -43.4 -167.7 -3.6 -163.4C36.2 -159.2 72.4 -144.3 89.3 -118.3" fill="#f9fbff"></path></g></svg>