<svg id="visual" viewBox="0 0 960 540" width="960" height="540" xmlns="http://www.w3.org/2000/svg" xmlns:xlink="http://www.w3.org/1999/xlink" version="1.1"><path d="M0 82L26.7 85.7C53.3 89.3 106.7 96.7 160 109.3C213.3 122 266.7 140 320 149C373.3 158 426.7 158 480 144.5C533.3 131 586.7 104 640 88.7C693.3 73.3 746.7 69.7 800 75C853.3 80.3 906.7 94.7 933.3 101.8L960 109L960 0L933.3 0C906.7 0 853.3 0 800 0C746.7 0 693.3 0 640 0C586.7 0 533.3 0 480 0C426.7 0 373.3 0 320 0C266.7 0 213.3 0 160 0C106.7 0 53.3 0 26.7 0L0 0Z" fill="#1e1f1f"></path><path d="M0 114L26.7 116.8C53.3 119.7 106.7 125.3 160 137.2C213.3 149 266.7 167 320 179.5C373.3 192 426.7 199 480 189C533.3 179 586.7 152 640 135C693.3 118 746.7 111 800 114.7C853.3 118.3 906.7 132.7 933.3 139.8L960 147L960 107L933.3 99.8C906.7 92.7 853.3 78.3 800 73C746.7 67.7 693.3 71.3 640 86.7C586.7 102 533.3 129 480 142.5C426.7 156 373.3 156 320 147C266.7 138 213.3 120 160 107.3C106.7 94.7 53.3 87.3 26.7 83.7L0 80Z" fill="#465256"></path><path d="M0 152L26.7 153C53.3 154 106.7 156 160 167.7C213.3 179.3 266.7 200.7 320 212.3C373.3 224 426.7 226 480 216.2C533.3 206.3 586.7 184.7 640 169.3C693.3 154 746.7 145 800 150.3C853.3 155.7 906.7 175.3 933.3 185.2L960 195L960 145L933.3 137.8C906.7 130.7 853.3 116.3 800 112.7C746.7 109 693.3 116 640 133C586.7 150 533.3 177 480 187C426.7 197 373.3 190 320 177.5C266.7 165 213.3 147 160 135.2C106.7 123.3 53.3 117.7 26.7 114.8L0 112Z" fill="#758b97"></path><path d="M0 212L26.7 210.2C53.3 208.3 106.7 204.7 160 213.7C213.3 222.7 266.7 244.3 320 254.2C373.3 264 426.7 262 480 249.3C533.3 236.7 586.7 213.3 640 200.8C693.3 188.3 746.7 186.7 800 193.8C853.3 201 906.7 217 933.3 225L960 233L960 193L933.3 183.2C906.7 173.3 853.3 153.7 800 148.3C746.7 143 693.3 152 640 167.3C586.7 182.7 533.3 204.3 480 214.2C426.7 224 373.3 222 320 210.3C266.7 198.7 213.3 177.3 160 165.7C106.7 154 53.3 152 26.7 151L0 150Z" fill="#b0c6e0"></path><path d="M0 260L26.7 268.2C53.3 276.3 106.7 292.7 160 303.5C213.3 314.3 266.7 319.7 320 327.7C373.3 335.7 426.7 346.3 480 337.3C533.3 328.3 586.7 299.7 640 285.3C693.3 271 746.7 271 800 277.3C853.3 283.7 906.7 296.3 933.3 302.7L960 309L960 231L933.3 223C906.7 215 853.3 199 800 191.8C746.7 184.7 693.3 186.3 640 198.8C586.7 211.3 533.3 234.7 480 247.3C426.7 260 373.3 262 320 252.2C266.7 242.3 213.3 220.7 160 211.7C106.7 202.7 53.3 206.3 26.7 208.2L0 210Z" fill="#bed2ef"></path><path d="M0 325L26.7 330.3C53.3 335.7 106.7 346.3 160 354.5C213.3 362.7 266.7 368.3 320 375.7C373.3 383 426.7 392 480 384.7C533.3 377.3 586.7 353.7 640 343.7C693.3 333.7 746.7 337.3 800 345.5C853.3 353.7 906.7 366.3 933.3 372.7L960 379L960 307L933.3 300.7C906.7 294.3 853.3 281.7 800 275.3C746.7 269 693.3 269 640 283.3C586.7 297.7 533.3 326.3 480 335.3C426.7 344.3 373.3 333.7 320 325.7C266.7 317.7 213.3 312.3 160 301.5C106.7 290.7 53.3 274.3 26.7 266.2L0 258Z" fill="#b0c6e0"></path><path d="M0 357L26.7 359.8C53.3 362.7 106.7 368.3 160 375.7C213.3 383 266.7 392 320 399.2C373.3 406.3 426.7 411.7 480 404.3C533.3 397 586.7 377 640 369.8C693.3 362.7 746.7 368.3 800 375.7C853.3 383 906.7 392 933.3 396.5L960 401L960 377L933.3 370.7C906.7 364.3 853.3 351.7 800 343.5C746.7 335.3 693.3 331.7 640 341.7C586.7 351.7 533.3 375.3 480 382.7C426.7 390 373.3 381 320 373.7C266.7 366.3 213.3 360.7 160 352.5C106.7 344.3 53.3 333.7 26.7 328.3L0 323Z" fill="#758b97"></path><path d="M0 395L26.7 397.7C53.3 400.3 106.7 405.7 160 411.2C213.3 416.7 266.7 422.3 320 430.5C373.3 438.7 426.7 449.3 480 443C533.3 436.7 586.7 413.3 640 404.3C693.3 395.3 746.7 400.7 800 406C853.3 411.3 906.7 416.7 933.3 419.3L960 422L960 399L933.3 394.5C906.7 390 853.3 381 800 373.7C746.7 366.3 693.3 360.7 640 367.8C586.7 375 533.3 395 480 402.3C426.7 409.7 373.3 404.3 320 397.2C266.7 390 213.3 381 160 373.7C106.7 366.3 53.3 360.7 26.7 357.8L0 355Z" fill="#465256"></path><path d="M0 541L26.7 541C53.3 541 106.7 541 160 541C213.3 541 266.7 541 320 541C373.3 541 426.7 541 480 541C533.3 541 586.7 541 640 541C693.3 541 746.7 541 800 541C853.3 541 906.7 541 933.3 541L960 541L960 420L933.3 417.3C906.7 414.7 853.3 409.3 800 404C746.7 398.7 693.3 393.3 640 402.3C586.7 411.3 533.3 434.7 480 441C426.7 447.3 373.3 436.7 320 428.5C266.7 420.3 213.3 414.7 160 409.2C106.7 403.7 53.3 398.3 26.7 395.7L0 393Z" fill="#1e1f1f"></path></svg>